<svg preserveAspectRatio="none" width="100%" height="100%" overflow="visible" style="display: block;" viewBox="0 0 23 23.0078" fill="none" xmlns="http://www.w3.org/2000/svg">
<g id="Group 1">
<path id="Vector" d="M11.6934 2.03846C13.8296 1.87386 15.9655 2.3674 17.8135 3.45154C19.6613 4.5357 21.1337 6.15902 22.0322 8.10388C22.9308 10.0489 23.2122 12.2224 22.8398 14.3324C22.4675 16.4422 21.4591 18.3876 19.9492 19.9076C18.4392 21.4276 16.5001 22.4501 14.3926 22.8363C12.2852 23.2225 10.11 22.9544 8.15918 22.0687C6.20828 21.1829 4.57482 19.7211 3.47852 17.8803C2.38228 16.0394 1.87583 13.9071 2.02637 11.7699L2.52441 11.8051C2.38105 13.8405 2.86416 15.8712 3.9082 17.6244C4.9523 19.3776 6.50821 20.77 8.36621 21.6137C10.2241 22.4571 12.2958 22.7119 14.3027 22.3441C16.3098 21.9763 18.1567 21.0036 19.5947 19.556C21.0328 18.1084 21.9931 16.255 22.3477 14.2455C22.7022 12.236 22.4339 10.1662 21.5781 8.31385C20.7223 6.46144 19.3196 4.91473 17.5596 3.88221C15.7996 2.84988 13.7658 2.38072 11.7314 2.53748L11.7129 2.28846L11.6934 2.03846ZM11.5244 0.505252L11.5693 2.70447L11.5752 2.95447L11.3252 2.95935C9.08849 3.00517 6.95827 3.92583 5.39258 5.52381C3.82687 7.12192 2.9502 9.27091 2.9502 11.5082V11.7582H0.25V11.5082C0.25 8.56452 1.40388 5.73788 3.46387 3.63513C5.524 1.53238 8.32639 0.320441 11.2695 0.260135L11.5195 0.255252L11.5244 0.505252Z" stroke="var(--stroke-0, black)" stroke-width="0.5"/>
<rect id="Rectangle 38" x="12" y="12.0078" width="1" height="1" rx="0.5" fill="var(--fill-0, black)"/>
<circle id="Ellipse 113" cx="12.5" cy="12.5078" r="3.25" stroke="var(--stroke-0, black)" stroke-width="0.5"/>
<path id="Ellipse 114" d="M14.6874 19.157C11.0151 20.3651 7.05887 18.3675 5.8508 14.6952C4.64274 11.023 6.64034 7.06672 10.3126 5.85866C13.9848 4.65059 17.9411 6.64819 19.1492 10.3204C20.3572 13.9927 18.3596 17.9489 14.6874 19.157Z" stroke="var(--stroke-1, black)" stroke-width="0.5" stroke-linecap="round" stroke-linejoin="round" stroke-dasharray="5 5"/>
</g>
</svg>
