<svg preserveAspectRatio="none" width="100%" height="100%" overflow="visible" style="display: block;" viewBox="0 0 20.5 20.5" fill="none" xmlns="http://www.w3.org/2000/svg">
<g id="Group 2">
<path id="Vector 12" d="M0.857904 17.7922H0.343874V20.25H20.1737V17.7922H19.62M0.857904 17.7922V5.5098M0.857904 17.7922H19.62M0.857904 5.5098H0.75C0.473858 5.5098 0.25 5.28594 0.25 5.0098V3.41469C0.25 3.13854 0.473858 2.91469 0.75 2.91469H1.76607M0.857904 5.5098H19.62M19.62 17.7922V5.5098M19.62 5.5098H19.75C20.0261 5.5098 20.25 5.28594 20.25 5.0098V3.41469C20.25 3.13854 20.0261 2.91469 19.75 2.91469H18.6984M1.76607 2.91469V1.27634C1.76607 0.724055 2.21379 0.276339 2.76607 0.276339H4.71279C5.26384 0.276339 5.71105 0.722139 5.71278 1.27319L5.71795 2.91469M1.76607 2.91469H5.71795M5.71795 2.91469H14.7851M14.7851 2.91469V1.25C14.7851 0.697714 15.2328 0.25 15.7851 0.25H17.6984C18.2507 0.25 18.6984 0.697715 18.6984 1.25V2.91469M14.7851 2.91469H18.6984" stroke="var(--stroke-0, black)" stroke-width="0.5" stroke-linecap="round" stroke-linejoin="round"/>
<path id="Vector 13" d="M10.3203 11.3486L10.2959 11.4932H12.043L9.86523 15.6104L10.1807 12.7383L10.1963 12.5996H8.4707L10.7295 8.86914L10.3203 11.3486Z" stroke="var(--stroke-0, black)" stroke-width="0.25"/>
<path id="+" d="M3.66096 2.24022V1.83121H3.25V1.659H3.66096V1.25H3.83904V1.659H4.25V1.83121H3.83904V2.24022H3.66096Z" fill="var(--fill-0, black)"/>
<path id="-" d="M16.25 1.87431V1.54999H17.25V1.87431H16.25Z" fill="var(--fill-0, black)"/>
</g>
</svg>
