<svg preserveAspectRatio="none" width="100%" height="100%" overflow="visible" style="display: block;" viewBox="0 0 24 24" fill="none" xmlns="http://www.w3.org/2000/svg">
<g id="Group">
<g id="Rectangle 35">
</g>
<path id="Ellipse 111" d="M12 6.75C13.398 6.75 14.6734 6.91999 15.6074 7.2002C16.0728 7.33981 16.4679 7.51044 16.752 7.71191C17.0295 7.9088 17.25 8.1717 17.25 8.5C17.25 8.8283 17.0295 9.0912 16.752 9.28809C16.4679 9.48956 16.0728 9.66019 15.6074 9.7998C14.6734 10.08 13.398 10.25 12 10.25C10.602 10.25 9.32658 10.08 8.39258 9.7998C7.92723 9.66019 7.5321 9.48956 7.24805 9.28809C6.97047 9.0912 6.75 8.8283 6.75 8.5C6.75 8.1717 6.97047 7.9088 7.24805 7.71191C7.5321 7.51044 7.92723 7.33981 8.39258 7.2002C9.32658 6.91999 10.602 6.75 12 6.75Z" stroke="var(--stroke-0, black)" stroke-width="0.5"/>
<path id="Vector" d="M23 8.5V16.5543C23 17.2381 22.6573 17.8803 22.0522 18.1989C18.1681 20.2442 10.1229 22.4023 2.00793 18.2064C1.37606 17.8797 1 17.2148 1 16.5034V8.5M23 8.5C23 10.9853 18.0751 13 12 13C5.92487 13 1 10.9853 1 8.5M23 8.5C23 6.01472 18.0751 4 12 4C5.92487 4 1 6.01472 1 8.5" stroke="var(--stroke-0, black)" stroke-width="0.5" stroke-linecap="round" stroke-linejoin="round"/>
<path id="Lines" d="M3.5 11.5V18.8M6 12.5V19.5M9 13V20.2M12 13V20.5M15 13V20.2M18 12.5V19.5M21 11.2V18.5" stroke="var(--stroke-0, black)" stroke-width="0.5" stroke-linecap="round" stroke-linejoin="round"/>
</g>
</svg>
