<svg preserveAspectRatio="none" width="100%" height="100%" overflow="visible" style="display: block;" viewBox="0 0 146.385 110" fill="none" xmlns="http://www.w3.org/2000/svg">
<g id="Brake Pad Warning_2">
<path id="Vector" d="M73.1923 110C42.8599 110 18.1902 85.3295 18.1902 54.9961C18.1902 24.6704 42.8599 0 73.1923 0C103.517 0 128.194 24.6704 128.194 54.9961C128.194 85.3295 103.517 110 73.1923 110ZM73.1923 11.1641C49.0234 11.1641 29.3617 30.8342 29.3617 54.9961C29.3617 79.1658 49.0234 98.8282 73.1923 98.8282C97.3612 98.8282 117.023 79.1658 117.023 54.9961C117.023 30.8342 97.3612 11.1641 73.1923 11.1641Z" fill="var(--fill-0, #FAB639)"/>
<path id="Vector_2" d="M140.19 70.1903C139.959 70.1903 139.713 70.1748 139.474 70.144C136.415 69.7511 134.25 66.9465 134.651 63.8878C135.021 60.9831 135.213 57.986 135.213 54.9889C135.213 51.9994 135.021 49.01 134.651 46.113C134.25 43.0542 136.415 40.2574 139.474 39.8645C142.532 39.4562 145.329 41.6289 145.73 44.6877C146.161 48.0546 146.385 51.5295 146.385 54.9889C146.385 58.4637 146.161 61.9385 145.722 65.3208C145.368 68.1331 142.964 70.1903 140.19 70.1903V70.1903Z" fill="var(--fill-0, #FAB639)"/>
<path id="Vector_3" d="M135.837 34.0091C133.611 34.0091 131.507 32.6684 130.637 30.4648C128.318 24.563 125.136 19.0157 121.199 13.9845C119.304 11.5498 119.727 8.04413 122.162 6.14106C124.589 4.2457 128.102 4.66945 129.997 7.09644C134.597 12.9828 138.31 19.4625 141.03 26.3737C142.163 29.2398 140.753 32.4912 137.879 33.6161C137.209 33.8781 136.515 34.0091 135.837 34.0091Z" fill="var(--fill-0, #FAB639)"/>
<path id="Vector_4" d="M125.598 105.03C124.396 105.03 123.179 104.645 122.162 103.844C119.735 101.941 119.303 98.4352 121.199 96.0082C125.128 90.977 128.302 85.4374 130.629 79.5356C131.761 76.6694 135.005 75.2595 137.871 76.3844C140.745 77.517 142.155 80.7606 141.022 83.6344C138.302 90.5378 134.597 97.0175 130.005 102.888C128.903 104.291 127.254 105.03 125.598 105.03Z" fill="var(--fill-0, #FAB639)"/>
<path id="Vector_5" d="M6.18661 70.1825C3.42071 70.1825 1.01697 68.1331 0.65486 65.3131C0.215706 61.9462 0 58.479 0 55.0042C0 51.5294 0.215706 48.0622 0.65486 44.6799C1.04779 41.6211 3.85221 39.4638 6.91087 39.8567C9.96954 40.2496 12.1268 43.0542 11.7339 46.1129C11.3564 49.0176 11.1715 52.0071 11.1715 55.0042C11.1715 57.9936 11.3564 60.9907 11.7339 63.8877C12.1268 66.9465 9.96183 69.7433 6.90316 70.1439C6.66432 70.167 6.42545 70.1825 6.18661 70.1825V70.1825Z" fill="var(--fill-0, #FAB639)"/>
<path id="Vector_6" d="M20.7866 105.046C19.1301 105.046 17.4813 104.307 16.3796 102.897C11.7801 97.0179 8.06662 90.5306 5.34698 83.6272C4.22214 80.7534 5.63201 77.5175 8.49804 76.3849C11.3718 75.2523 14.6153 76.6622 15.7402 79.5361C18.0669 85.4379 21.2411 90.9852 25.178 96.0164C27.081 98.4433 26.6496 101.957 24.2227 103.86C23.198 104.653 21.9885 105.046 20.7866 105.046Z" fill="var(--fill-0, #FAB639)"/>
<path id="Vector_7" d="M10.5553 34.0091C9.86962 34.0091 9.1839 33.8781 8.50591 33.6161C5.63986 32.4835 4.22227 29.2398 5.35482 26.366C8.07449 19.4625 11.788 12.9829 16.3798 7.11188C18.2751 4.67719 21.7961 4.25343 24.223 6.14879C26.6499 8.05186 27.0813 11.5652 25.1783 13.9921C21.249 19.0233 18.0748 24.5553 15.7481 30.4648C14.8852 32.6607 12.7819 34.0091 10.5553 34.0091Z" fill="var(--fill-0, #FAB639)"/>
</g>
</svg>
