<svg preserveAspectRatio="none" width="100%" height="100%" overflow="visible" style="display: block;" viewBox="0 0 160.347 110" fill="none" xmlns="http://www.w3.org/2000/svg">
<g id="CEL_1">
<path id="Vector" d="M155.216 35.6232C155.216 35.6232 153.621 32.0572 151.65 32.0572H133.252C131.281 32.0572 129.679 33.6519 129.679 35.6232V39.0858H124.666C124.666 35.6675 124.666 33.5264 124.666 33.3123C124.666 32.0572 123.352 32.1679 123.352 32.1679H112.174C112.174 14.6627 103.33 14.7144 103.33 14.7144H83.5585V8.77106H103.33V0H37.763V8.77106H59.3208V14.7144C59.3208 14.7144 48.3352 14.7144 39.4758 14.7144L27.5378 23.8399H18.2872C16.316 23.8399 14.7213 25.442 14.7213 27.4133V50.3081H8.77077V25.8481H0V87.2528H8.77077V61.9807H14.7213V85.695C14.7213 87.6663 16.316 89.261 18.2872 89.261H27.5378L56.5744 110C56.5744 110 109.051 110 117.305 110C125.559 110 124.666 102.979 124.666 102.979C124.666 102.979 124.666 98.7187 124.666 92.3102H129.679V100.188C129.679 102.159 131.281 103.761 133.252 103.761H151.65C153.621 103.761 155.216 100.188 155.216 100.188L160.347 85.2447V50.5665L155.216 35.6232ZM40.4282 70.2645C42.6874 70.2645 44.9908 69.8215 46.4821 69.1349L47.2425 71.9626C45.8841 72.568 43.1525 73.262 39.6161 73.262C31.5689 73.262 25.478 68.3596 25.478 59.4261C25.478 50.8913 31.5689 45.1473 40.4725 45.1473C44.0089 45.1473 46.3123 45.8413 47.2868 46.3212L46.3935 49.1932C44.9908 48.5435 42.99 48.0563 40.598 48.0563C33.8723 48.0563 29.3909 52.1465 29.3909 59.308C29.3909 65.9823 33.4441 70.2645 40.4282 70.2645ZM73.1931 72.8116H69.4869V60.0315H55.5999V72.8116H51.8494V45.5534H55.5999V56.9971H69.4869V45.5534H73.1931V72.8116ZM95.814 72.8116H79.6235V45.5534H95.1717V48.4697H83.3739V57.1226H94.4924V60.0315H83.3739V69.9027H95.814V72.8116ZM113.835 70.2645C116.095 70.2645 118.391 69.8215 119.882 69.1349L120.65 71.9626C119.284 72.568 116.56 73.262 113.023 73.262C104.969 73.262 98.8778 68.3596 98.8778 59.4261C98.8778 50.8913 104.969 45.1473 113.88 45.1473C117.416 45.1473 119.712 45.8413 120.694 46.3212L119.801 49.1932C118.391 48.5435 116.39 48.0563 114.005 48.0563C107.272 48.0563 102.798 52.1465 102.798 59.308C102.798 65.9823 106.844 70.2645 113.835 70.2645ZM141.181 72.8116L131.724 59.4261L129 62.4236V72.8116H125.249V45.5534H129V58.6952H129.125C129.893 57.6468 130.653 56.6723 131.384 55.7863L140.155 45.5534H144.718L134.367 57.1226L145.574 72.8116H141.181Z" fill="var(--fill-0, #FAB639)"/>
</g>
</svg>
