<svg preserveAspectRatio="none" width="100%" height="100%" overflow="visible" style="display: block;" viewBox="0 0 197.357 110" fill="none" xmlns="http://www.w3.org/2000/svg">
<g id="Min Oil Level">
<path id="Vector" d="M162.793 96.7927C162.618 92.5956 162.405 87.5469 162.435 83.7984H162.336C161.523 87.3264 160.534 91.0749 159.341 95.2264L155.144 109.825H152.817L148.985 95.4925C147.852 91.2498 146.902 87.372 146.233 83.7984H146.164C146.096 87.5469 145.921 92.5956 145.708 97.0969L145.069 110H142.15L143.807 79.913H147.715L151.768 94.4661C152.749 98.169 153.562 101.476 154.163 104.602H154.269C154.862 101.568 155.714 98.2602 156.763 94.4661L160.998 79.913H164.906L166.389 110H163.393L162.793 96.7927V96.7927Z" fill="var(--fill-0, #FAB639)"/>
<path id="Vector_2" d="M171.11 110H174.174V79.913H171.11V110Z" fill="var(--fill-0, #FAB639)"/>
<path id="Vector_3" d="M179.527 110V79.913H182.88L190.484 95.1351C192.248 98.6631 193.616 101.834 194.749 104.913L194.818 104.868C194.536 100.853 194.46 97.1881 194.46 92.5043V79.913H197.357V110H194.255L186.713 94.7322C185.063 91.3867 183.474 87.9498 182.28 84.6955L182.173 84.7412C182.348 88.5277 182.417 92.1469 182.417 97.1424V110H179.527Z" fill="var(--fill-0, #FAB639)"/>
<path id="Vector_4" d="M126.281 87.2958C120.609 87.2958 117.53 90.2536 115.492 92.2077C113.797 93.8348 113.181 94.3519 111.584 94.3519C109.98 94.3519 109.372 93.8348 107.668 92.2077C105.638 90.2536 102.559 87.2958 96.8793 87.2958C91.2073 87.2958 88.128 90.2536 86.0903 92.2153C84.3948 93.8349 83.7865 94.3519 82.1898 94.3519C80.5931 94.3519 79.9773 93.8349 78.2817 92.2153C76.2441 90.2536 73.1648 87.2958 67.4927 87.2958C61.8207 87.2958 58.7414 90.2536 56.7037 92.2153C55.0082 93.8349 54.3999 94.3519 52.8032 94.3519C51.2065 94.3519 50.5983 93.8349 48.9027 92.2153C46.8651 90.2536 43.7857 87.2958 38.1137 87.2958C32.4417 87.2958 29.3623 90.2536 27.3247 92.2153C25.6367 93.8349 25.0209 94.3519 23.4242 94.3519C21.8275 94.3519 21.2193 93.8349 19.5237 92.2153C17.4937 90.2536 14.4143 87.2958 8.73469 87.2958C5.98991 87.2958 3.76216 89.5237 3.76216 92.2686C3.76216 95.0211 5.98991 97.2412 8.73469 97.2412C10.3314 97.2412 10.9472 97.7583 12.6428 99.3855C14.6728 101.34 17.7522 104.297 23.4242 104.297C29.1038 104.297 32.1756 101.34 34.2132 99.3855C35.9088 97.7583 36.517 97.2412 38.1137 97.2412C39.7104 97.2412 40.3187 97.7583 42.0142 99.3855C44.0519 101.34 47.1312 104.297 52.8032 104.297C58.4753 104.297 61.5546 101.34 63.5923 99.3855C65.2878 97.7583 65.896 97.2412 67.4927 97.2412C69.0894 97.2412 69.7053 97.7583 71.4008 99.3855C73.4385 101.34 76.5178 104.297 82.1898 104.297C87.8619 104.297 90.9412 101.34 92.9789 99.3855C94.6668 97.7583 95.2827 97.2412 96.8793 97.2412C98.4836 97.2412 99.0919 97.7583 100.787 99.3855C102.825 101.34 105.904 104.297 111.584 104.297C117.256 104.297 120.335 101.34 122.373 99.3855C124.069 97.7583 124.684 97.2412 126.281 97.2412C129.026 97.2412 131.254 95.0211 131.254 92.2686C131.254 89.5237 129.026 87.2958 126.281 87.2958Z" fill="var(--fill-0, #FAB639)"/>
<path id="Vector_5" d="M168.913 24.9167C170.13 23.2515 170.092 20.9705 168.807 19.351L159.622 7.7328C158.383 6.15887 156.261 5.57339 154.383 6.28811L94.4088 29.1899L84.3724 21.8829C83.5893 21.3127 82.6465 21.0009 81.6733 21.0009H68.5881V16.6745H71.6826C74.2221 16.6745 76.275 14.614 76.275 12.082V4.59255C76.275 2.05298 74.2221 0 71.6826 0H53.7465C51.207 0 49.1541 2.05298 49.1541 4.59255V12.082C49.1541 14.614 51.207 16.6745 53.7465 16.6745H57.2136V21.0009H38.4107V19.5258C38.4107 17.6706 37.3082 16.0055 35.6051 15.2907L14.3844 6.349C13.2287 5.86998 11.9285 5.8699 10.7804 6.36413C9.63234 6.85836 8.73516 7.80123 8.30178 8.97217L0.295526 30.3304C-0.525627 32.4974 0.417179 34.9382 2.47006 36.0103L29.226 49.9779V64.7515C29.226 67.2911 31.2788 69.344 33.8183 69.344H103.761C104.909 69.344 106.019 68.9106 106.863 68.1426L155.737 23.4949L163.568 26.4907C165.499 27.2206 167.681 26.5819 168.913 24.9167ZM10.3166 29.7449L15.2207 16.6745L29.226 22.5672V39.6143L10.3166 29.7449V29.7449ZM101.982 60.1589H38.4107V30.186H80.1755L91.0177 38.0784C92.2798 38.9984 93.907 39.2114 95.3592 38.6639L147.175 18.8796L101.982 60.1589V60.1589Z" fill="var(--fill-0, #FAB639)"/>
<path id="Vector_6" d="M167.369 34.7015C167.369 34.7015 159.165 49.0494 159.165 53.1172C159.165 57.1851 162.838 60.485 167.369 60.485C171.901 60.485 175.573 57.1851 175.573 53.1172C175.573 49.0494 167.369 34.7015 167.369 34.7015Z" fill="var(--fill-0, #FAB639)"/>
<path id="Vector_7" d="M103.844 64.7207H35.0197V26.6575H81.9014L94.5837 33.2953L133.018 38.2909L103.844 64.7207Z" fill="var(--fill-0, #FAB639)"/>
</g>
</svg>
