<svg preserveAspectRatio="none" width="100%" height="100%" overflow="visible" style="display: block;" viewBox="0 0 131.325 110" fill="none" xmlns="http://www.w3.org/2000/svg">
<g id="Tire Pressure">
<path id="Vector" d="M72.8516 59.6808C72.8516 61.7028 71.2115 63.3354 69.197 63.3354H63.9398C61.9253 63.3354 60.2927 61.7028 60.2927 59.6808V15.1581C60.2927 13.1435 61.9253 11.5033 63.9398 11.5033H69.197C71.2115 11.5033 72.8516 13.1435 72.8516 15.1581V59.6808Z" fill="var(--fill-0, #FAB639)"/>
<path id="Vector_2" d="M72.8516 79.2422C72.8516 81.2643 71.2115 82.897 69.197 82.897H63.9398C61.9253 82.897 60.2927 81.2643 60.2927 79.2422V73.9923C60.2927 71.9777 61.9253 70.3377 63.9398 70.3377H69.197C71.2115 70.3377 72.8516 71.9777 72.8516 73.9923V79.2422Z" fill="var(--fill-0, #FAB639)"/>
<path id="Vector_3" d="M107.772 0.89882C105.78 -0.591511 102.964 -0.179647 101.474 1.79748C99.9762 3.78958 100.381 6.61292 102.358 8.11074C103.174 8.72484 122.315 23.5533 122.315 52.2814C122.315 80.9947 103.182 95.8381 102.358 96.4596C102.118 96.6394 101.908 96.8416 101.714 97.0513H29.611C29.4163 96.8416 29.2066 96.6394 28.9669 96.4596C28.1581 95.8455 9.01661 81.0171 9.01661 52.2889C9.01661 23.5682 28.1507 8.72484 28.9669 8.11074C30.9515 6.61292 31.3558 3.79707 29.8656 1.80497C28.3753 -0.187129 25.5519 -0.591511 23.5599 0.89882C22.5939 1.61777 0 18.91 0 52.2889C0 85.6679 22.5939 102.953 23.5599 103.672C24.3687 104.278 25.3124 104.57 26.2485 104.57H27.5964C27.6788 104.713 27.7537 104.848 27.8136 104.96C28.907 106.967 30.562 110 34.1417 110C37.7288 110 39.3764 106.967 40.4698 104.96C40.5372 104.848 40.612 104.713 40.6869 104.57H43.383C43.4579 104.713 43.5327 104.848 43.6001 104.96C44.686 106.967 46.3411 110 49.9282 110C53.5079 110 55.1629 106.967 56.2563 104.96C56.3162 104.848 56.3911 104.713 56.4735 104.57H59.162C59.2443 104.713 59.3118 104.848 59.3792 104.96C60.4725 106.967 62.1201 110 65.7072 110C69.2944 110 70.9494 106.967 72.0428 104.96C72.1027 104.848 72.1776 104.713 72.26 104.57H74.9484C75.0308 104.713 75.1057 104.848 75.1656 104.96C76.259 106.967 77.914 110 81.5012 110C85.0809 110 86.736 106.967 87.8293 104.96C87.8967 104.848 87.9641 104.713 88.0464 104.57H90.7425C90.8174 104.713 90.8922 104.848 90.9596 104.96C92.053 106.967 93.7081 110 97.2953 110C100.875 110 102.53 106.967 103.623 104.96C103.691 104.848 103.766 104.713 103.841 104.57H105.039C105.039 104.57 105.061 104.57 105.069 104.57H105.084H105.188V104.563C106.095 104.533 106.993 104.248 107.772 103.672C108.731 102.953 131.325 85.6604 131.325 52.2814C131.325 18.9025 108.731 1.61777 107.772 0.89882V0.89882Z" fill="var(--fill-0, #FAB639)"/>
</g>
</svg>
